<svg width="151" height="27" viewBox="0 0 151 27" fill="none" xmlns="http://www.w3.org/2000/svg">
<path d="M85.8271 21.4254C84.6985 21.4254 83.7035 21.1954 82.8422 20.7354C81.9809 20.2754 81.3053 19.6077 80.8152 18.7322C80.34 17.8568 80.1024 16.8181 80.1024 15.6162C80.1024 14.4143 80.3474 13.3756 80.8375 12.5002C81.3275 11.6247 82.0032 10.9496 82.8645 10.4747C83.7258 9.98507 84.7133 9.74023 85.8271 9.74023C86.9408 9.74023 87.9283 9.97765 88.7896 10.4525C89.6658 10.9273 90.3489 11.6099 90.8389 12.5002C91.329 13.3756 91.574 14.4143 91.574 15.6162C91.574 16.8181 91.329 17.8568 90.8389 18.7322C90.3637 19.6077 89.6881 20.2754 88.8119 20.7354C87.9506 21.1954 86.9557 21.4254 85.8271 21.4254ZM85.8271 18.9326C86.3171 18.9326 86.7478 18.799 87.119 18.5319C87.4903 18.2648 87.7799 17.8865 87.9878 17.3968C88.1957 16.8923 88.2996 16.2988 88.2996 15.6162C88.2996 14.5627 88.0694 13.7466 87.6091 13.1679C87.1636 12.5743 86.5696 12.2776 85.8271 12.2776C85.3519 12.2776 84.9287 12.4111 84.5574 12.6782C84.1862 12.9305 83.8966 13.3088 83.6887 13.8133C83.4808 14.303 83.3768 14.904 83.3768 15.6162C83.3768 16.64 83.5922 17.4487 84.0228 18.0423C84.4683 18.6358 85.0697 18.9326 85.8271 18.9326Z" fill="#262626"/>
<path d="M72.5128 25.9436C71.4139 25.9436 70.471 25.7582 69.6839 25.3872C68.9117 25.0311 68.3177 24.5266 67.9019 23.8737C67.501 23.2357 67.2931 22.4863 67.2782 21.6257H70.5304C70.5601 22.2192 70.7457 22.6718 71.0872 22.9834C71.4436 23.3098 71.9485 23.4731 72.6019 23.4731C73.285 23.4731 73.8419 23.2728 74.2725 22.8721C74.718 22.4863 74.9408 21.9373 74.9408 21.2251V20.179C74.9408 19.6745 74.9705 19.2516 75.0299 18.9103C74.6883 19.4296 74.2354 19.8451 73.6711 20.1567C73.1068 20.4683 72.4534 20.6241 71.7109 20.6241C70.7605 20.6241 69.9215 20.4164 69.1939 20.0009C68.4811 19.5706 67.9168 18.9474 67.501 18.1313C67.1 17.3152 66.8995 16.3359 66.8995 15.1933C66.8995 14.0656 67.1149 13.0937 67.5455 12.2776C67.991 11.4466 68.5702 10.816 69.283 10.3857C70.0106 9.95539 70.7828 9.74023 71.5996 9.74023C72.446 9.74023 73.1439 9.90346 73.6934 10.2299C74.2428 10.5415 74.6883 10.9792 75.0299 11.5431C74.9705 11.2166 74.9408 10.8531 74.9408 10.4525V10.1186H78.1707V20.4683C78.1707 22.2637 77.6583 23.6215 76.6337 24.5414C75.6239 25.4762 74.2503 25.9436 72.5128 25.9436ZM72.6687 18.109C73.1439 18.109 73.5672 17.9903 73.9384 17.7529C74.3097 17.5007 74.5992 17.152 74.8071 16.7068C75.0299 16.2617 75.1413 15.7572 75.1413 15.1933C75.1413 14.6146 75.0299 14.1027 74.8071 13.6575C74.5992 13.2124 74.3097 12.8711 73.9384 12.6337C73.5672 12.3814 73.1439 12.2553 72.6687 12.2553C72.1787 12.2553 71.7406 12.3814 71.3545 12.6337C70.9833 12.8711 70.6937 13.2124 70.4858 13.6575C70.2779 14.1027 70.174 14.6146 70.174 15.1933C70.174 15.7572 70.2779 16.2617 70.4858 16.7068C70.6937 17.152 70.9833 17.5007 71.3545 17.7529C71.7406 17.9903 72.1787 18.109 72.6687 18.109Z" fill="#262626"/>
<path d="M58.969 10.1186H62.1766V10.8754C62.1766 11.2908 62.1469 11.6766 62.0875 12.0327C62.4142 11.3353 62.8374 10.7789 63.3572 10.3634C63.8918 9.94797 64.5303 9.74023 65.2728 9.74023C65.4956 9.74023 65.6886 9.76249 65.852 9.80701V12.923C65.6144 12.8637 65.3471 12.834 65.0501 12.834C64.5006 12.834 64.0106 12.9379 63.5799 13.1456C63.1641 13.3534 62.83 13.6946 62.5775 14.1695C62.3251 14.6295 62.1989 15.2378 62.1989 15.9946V21.0248H58.969V10.1186Z" fill="#262626"/>
<path d="M50.1951 21.4254C49.5566 21.4254 48.9403 21.2918 48.3463 21.0247C47.7672 20.7428 47.2994 20.3422 46.943 19.8228C46.6014 19.2887 46.4307 18.6655 46.4307 17.9532C46.4307 16.8107 46.8168 15.9723 47.589 15.4381C48.3612 14.8891 49.4081 14.533 50.7297 14.3698L52.289 14.1917C52.7048 14.1324 53.0018 14.0359 53.18 13.9024C53.3582 13.754 53.4473 13.5537 53.4473 13.3014C53.4473 12.9453 53.3062 12.6485 53.0241 12.4111C52.7419 12.1737 52.3558 12.055 51.8658 12.055C51.3312 12.055 50.8931 12.196 50.5515 12.4779C50.21 12.7598 50.0095 13.153 49.9501 13.6575H46.6757C46.7351 12.9008 46.9801 12.2256 47.4108 11.6321C47.8563 11.0386 48.4503 10.5786 49.1928 10.2522C49.9353 9.91087 50.7891 9.74023 51.7544 9.74023C52.8681 9.74023 53.7814 9.93313 54.4942 10.3189C55.2218 10.6899 55.749 11.2389 56.0757 11.966C56.4173 12.6782 56.588 13.5537 56.588 14.5924V21.0247H53.6032V20.6241C53.6032 20.3125 53.6329 19.9787 53.6923 19.6225C53.3804 20.1864 52.935 20.6315 52.3558 20.958C51.7767 21.2696 51.0564 21.4254 50.1951 21.4254ZM51.1975 19.1329C51.6282 19.1329 52.0217 19.0364 52.3781 18.8435C52.7345 18.6358 53.0092 18.3613 53.2022 18.02C53.4101 17.6639 53.5141 17.2632 53.5141 16.8181V15.7943C53.3953 15.8981 53.2468 15.9797 53.0686 16.0391C52.8904 16.0984 52.6305 16.1652 52.289 16.2394L51.5316 16.3729C50.9228 16.4917 50.4624 16.6623 50.1506 16.8849C49.8387 17.1074 49.6828 17.4116 49.6828 17.7974C49.6828 18.2129 49.8239 18.5393 50.106 18.7767C50.3882 19.0142 50.752 19.1329 51.1975 19.1329Z" fill="#262626"/>
<path d="M37.0831 21.4254C35.5387 21.4254 34.1873 21.099 33.029 20.4461C31.8707 19.7932 30.9723 18.8435 30.3337 17.5971C29.71 16.3507 29.3982 14.8669 29.3982 13.1456C29.3982 11.4986 29.7397 10.0593 30.4228 8.82771C31.1059 7.59613 32.0489 6.66132 33.2518 6.02327C34.4546 5.37039 35.806 5.04395 37.3058 5.04395C38.6126 5.04395 39.7783 5.28136 40.803 5.75618C41.8425 6.23101 42.6741 6.92841 43.2978 7.84838C43.9363 8.76836 44.315 9.85897 44.4338 11.1202H40.8475C40.7287 10.1557 40.3575 9.38414 39.7338 8.80545C39.1249 8.22676 38.3082 7.93741 37.2835 7.93741C36.4519 7.93741 35.7094 8.14515 35.056 8.56062C34.4175 8.96125 33.9126 9.55478 33.5413 10.3412C33.1849 11.1276 33.0067 12.0625 33.0067 13.1456C33.0067 14.2585 33.1849 15.223 33.5413 16.0391C33.8977 16.8404 34.3878 17.4562 35.0115 17.8865C35.65 18.3168 36.3851 18.5319 37.2167 18.5319C38.2414 18.5319 39.0952 18.2203 39.7783 17.5971C40.4614 16.9739 40.8698 16.1504 41.0034 15.1266H44.5006C44.3818 16.373 44.0106 17.471 43.3869 18.4207C42.778 19.3703 41.9316 20.1122 40.8475 20.6464C39.7783 21.1657 38.5235 21.4254 37.0831 21.4254Z" fill="#262626"/>
<path d="M6.34471 8.85719V3.37978L11.4205 6.60407V12.0815L6.34471 8.85719Z" fill="#262626"/>
<path d="M5.66323 9.92381L0.680741 12.2466L12.1022 19.4917L17.0835 17.1783L5.66323 9.92381Z" fill="#262626"/>
<path d="M17.0835 3.2245L12.0074 0L7.02635 2.31328L12.1025 5.53778L17.0835 3.2245Z" fill="#262626"/>
<path d="M17.7652 16.1118L12.6894 12.8876V6.6602L17.7652 4.30295V16.1118Z" fill="#262626"/>
<path d="M17.7652 23.8387L12.6894 26.1959V20.614L17.7652 18.2568V23.8387Z" fill="#262626"/>
<path d="M0 13.3137V18.7804L11.4205 26.0249V20.5582L0 13.3137Z" fill="#262626"/>
<rect x="101.569" y="4.00977" width="49" height="22" rx="2.95019" fill="#059669"/>
<path d="M112.256 20.0098H108.626V9.29673H112.329C113.393 9.29673 114.306 9.5112 115.07 9.94014C115.837 10.3656 116.427 10.9776 116.838 11.7762C117.25 12.5748 117.455 13.5303 117.455 14.6428C117.455 15.7587 117.248 16.7177 116.833 17.5198C116.421 18.3219 115.827 18.9374 115.049 19.3664C114.275 19.7953 113.344 20.0098 112.256 20.0098ZM110.566 18.3306H112.162C112.908 18.3306 113.53 18.1946 114.029 17.9226C114.528 17.6471 114.903 17.2373 115.154 16.6933C115.405 16.1458 115.53 15.4623 115.53 14.6428C115.53 13.8233 115.405 13.1432 115.154 12.6027C114.903 12.0587 114.531 11.6524 114.04 11.3839C113.551 11.1119 112.945 10.9759 112.219 10.9759H110.566V18.3306ZM122.72 20.1667C121.936 20.1667 121.256 19.9941 120.68 19.6488C120.105 19.3036 119.659 18.8206 119.341 18.1998C119.027 17.5791 118.87 16.8537 118.87 16.0238C118.87 15.1938 119.027 14.4667 119.341 13.8424C119.659 13.2182 120.105 12.7335 120.68 12.3882C121.256 12.043 121.936 11.8704 122.72 11.8704C123.505 11.8704 124.185 12.043 124.76 12.3882C125.336 12.7335 125.78 13.2182 126.094 13.8424C126.412 14.4667 126.57 15.1938 126.57 16.0238C126.57 16.8537 126.412 17.5791 126.094 18.1998C125.78 18.8206 125.336 19.3036 124.76 19.6488C124.185 19.9941 123.505 20.1667 122.72 20.1667ZM122.731 18.6497C123.156 18.6497 123.512 18.5329 123.798 18.2992C124.084 18.0621 124.297 17.7448 124.436 17.3472C124.579 16.9496 124.651 16.5068 124.651 16.0185C124.651 15.5268 124.579 15.0822 124.436 14.6846C124.297 14.2836 124.084 13.9645 123.798 13.7274C123.512 13.4902 123.156 13.3717 122.731 13.3717C122.295 13.3717 121.932 13.4902 121.643 13.7274C121.357 13.9645 121.142 14.2836 120.999 14.6846C120.86 15.0822 120.79 15.5268 120.79 16.0185C120.79 16.5068 120.86 16.9496 120.999 17.3472C121.142 17.7448 121.357 18.0621 121.643 18.2992C121.932 18.5329 122.295 18.6497 122.731 18.6497ZM131.682 20.1667C130.88 20.1667 130.192 19.9906 129.616 19.6384C129.044 19.2861 128.603 18.7997 128.293 18.1789C127.986 17.5547 127.832 16.8363 127.832 16.0238C127.832 15.2077 127.989 14.4876 128.303 13.8634C128.617 13.2357 129.06 12.7474 129.632 12.3987C130.207 12.0465 130.887 11.8704 131.672 11.8704C132.324 11.8704 132.901 11.9907 133.403 12.2313C133.909 12.4684 134.312 12.805 134.612 13.2409C134.912 13.6733 135.082 14.179 135.124 14.7579H133.314C133.241 14.3708 133.067 14.0482 132.791 13.7901C132.519 13.5286 132.155 13.3978 131.698 13.3978C131.311 13.3978 130.971 13.5024 130.678 13.7117C130.385 13.9174 130.157 14.2138 129.993 14.6009C129.832 14.988 129.752 15.4518 129.752 15.9924C129.752 16.5399 129.832 17.0107 129.993 17.4047C130.153 17.7953 130.378 18.097 130.668 18.3097C130.96 18.5189 131.304 18.6236 131.698 18.6236C131.977 18.6236 132.226 18.5712 132.446 18.4666C132.669 18.3585 132.856 18.2033 133.006 18.0011C133.156 17.7988 133.259 17.553 133.314 17.2635H135.124C135.079 17.8319 134.912 18.3359 134.622 18.7753C134.333 19.2112 133.939 19.5529 133.44 19.8005C132.941 20.0446 132.355 20.1667 131.682 20.1667ZM143.03 14.0988L141.303 14.2871C141.255 14.1127 141.169 13.9488 141.047 13.7954C140.929 13.6419 140.768 13.5181 140.566 13.424C140.364 13.3298 140.116 13.2827 139.823 13.2827C139.429 13.2827 139.098 13.3682 138.829 13.539C138.564 13.7099 138.433 13.9314 138.437 14.2034C138.433 14.437 138.519 14.6271 138.693 14.7736C138.871 14.92 139.164 15.0403 139.572 15.1345L140.942 15.4274C141.703 15.5913 142.268 15.8511 142.637 16.2068C143.01 16.5626 143.199 17.0281 143.202 17.6035C143.199 18.1092 143.051 18.5556 142.758 18.9426C142.468 19.3263 142.065 19.6262 141.549 19.8424C141.033 20.0586 140.44 20.1667 139.771 20.1667C138.787 20.1667 137.996 19.9609 137.396 19.5494C136.796 19.1344 136.439 18.5573 136.324 17.818L138.17 17.6401C138.254 18.0028 138.432 18.2766 138.704 18.4614C138.976 18.6462 139.33 18.7386 139.765 18.7386C140.215 18.7386 140.576 18.6462 140.848 18.4614C141.124 18.2766 141.262 18.0481 141.262 17.7761C141.262 17.546 141.173 17.3559 140.995 17.206C140.82 17.056 140.548 16.9409 140.179 16.8607L138.808 16.573C138.038 16.4126 137.467 16.1423 137.098 15.7622C136.728 15.3786 136.545 14.8939 136.548 14.308C136.545 13.8128 136.679 13.3839 136.951 13.0212C137.227 12.655 137.609 12.3725 138.097 12.1738C138.589 11.9715 139.155 11.8704 139.797 11.8704C140.738 11.8704 141.48 12.0709 142.02 12.4719C142.564 12.873 142.901 13.4152 143.03 14.0988Z" fill="white"/>
</svg>
